<svg xmlns="http://www.w3.org/2000/svg" width="1024" height="1024" viewBox="0 0 1024 1024"><defs><linearGradient id="bg" x1="0" y1="0" x2="1" y2="1">
<stop offset="0" stop-color="#17A86C"/><stop offset="0.55" stop-color="#0E7A4D"/><stop offset="1" stop-color="#085236"/></linearGradient>
<radialGradient id="glow" cx="0.3" cy="0.25" r="0.85">
<stop offset="0" stop-color="#3BD494" stop-opacity="0.45"/><stop offset="0.55" stop-color="#3BD494" stop-opacity="0"/></radialGradient></defs><path d="M 1024.00,512.00 L 1023.90,640.26 L 1023.60,681.21 L 1023.09,710.94 L 1022.38,735.10 L 1021.47,755.78 L 1020.35,774.04 L 1019.03,790.46 L 1017.50,805.45 L 1015.77,819.26 L 1013.83,832.08 L 1011.67,844.06 L 1009.30,855.30 L 1006.72,865.88 L 1003.92,875.87 L 1000.90,885.33 L 997.66,894.30 L 994.19,902.81 L 990.49,910.91 L 986.56,918.62 L 982.38,925.96 L 977.97,932.95 L 973.30,939.60 L 968.37,945.94 L 963.18,951.98 L 957.72,957.72 L 951.98,963.18 L 945.94,968.37 L 939.60,973.30 L 932.95,977.97 L 925.96,982.38 L 918.62,986.56 L 910.91,990.49 L 902.81,994.19 L 894.30,997.66 L 885.33,1000.90 L 875.87,1003.92 L 865.88,1006.72 L 855.30,1009.30 L 844.06,1011.67 L 832.08,1013.83 L 819.26,1015.77 L 805.45,1017.50 L 790.46,1019.03 L 774.04,1020.35 L 755.78,1021.47 L 735.10,1022.38 L 710.94,1023.09 L 681.21,1023.60 L 640.26,1023.90 L 512.00,1024.00 L 383.74,1023.90 L 342.79,1023.60 L 313.06,1023.09 L 288.90,1022.38 L 268.22,1021.47 L 249.96,1020.35 L 233.54,1019.03 L 218.55,1017.50 L 204.74,1015.77 L 191.92,1013.83 L 179.94,1011.67 L 168.70,1009.30 L 158.12,1006.72 L 148.13,1003.92 L 138.67,1000.90 L 129.70,997.66 L 121.19,994.19 L 113.09,990.49 L 105.38,986.56 L 98.04,982.38 L 91.05,977.97 L 84.40,973.30 L 78.06,968.37 L 72.02,963.18 L 66.28,957.72 L 60.82,951.98 L 55.63,945.94 L 50.70,939.60 L 46.03,932.95 L 41.62,925.96 L 37.44,918.62 L 33.51,910.91 L 29.81,902.81 L 26.34,894.30 L 23.10,885.33 L 20.08,875.87 L 17.28,865.88 L 14.70,855.30 L 12.33,844.06 L 10.17,832.08 L 8.23,819.26 L 6.50,805.45 L 4.97,790.46 L 3.65,774.04 L 2.53,755.78 L 1.62,735.10 L 0.91,710.94 L 0.40,681.21 L 0.10,640.26 L 0.00,512.00 L 0.10,383.74 L 0.40,342.79 L 0.91,313.06 L 1.62,288.90 L 2.53,268.22 L 3.65,249.96 L 4.97,233.54 L 6.50,218.55 L 8.23,204.74 L 10.17,191.92 L 12.33,179.94 L 14.70,168.70 L 17.28,158.12 L 20.08,148.13 L 23.10,138.67 L 26.34,129.70 L 29.81,121.19 L 33.51,113.09 L 37.44,105.38 L 41.62,98.04 L 46.03,91.05 L 50.70,84.40 L 55.63,78.06 L 60.82,72.02 L 66.28,66.28 L 72.02,60.82 L 78.06,55.63 L 84.40,50.70 L 91.05,46.03 L 98.04,41.62 L 105.38,37.44 L 113.09,33.51 L 121.19,29.81 L 129.70,26.34 L 138.67,23.10 L 148.13,20.08 L 158.12,17.28 L 168.70,14.70 L 179.94,12.33 L 191.92,10.17 L 204.74,8.23 L 218.55,6.50 L 233.54,4.97 L 249.96,3.65 L 268.22,2.53 L 288.90,1.62 L 313.06,0.91 L 342.79,0.40 L 383.74,0.10 L 512.00,0.00 L 640.26,0.10 L 681.21,0.40 L 710.94,0.91 L 735.10,1.62 L 755.78,2.53 L 774.04,3.65 L 790.46,4.97 L 805.45,6.50 L 819.26,8.23 L 832.08,10.17 L 844.06,12.33 L 855.30,14.70 L 865.88,17.28 L 875.87,20.08 L 885.33,23.10 L 894.30,26.34 L 902.81,29.81 L 910.91,33.51 L 918.62,37.44 L 925.96,41.62 L 932.95,46.03 L 939.60,50.70 L 945.94,55.63 L 951.98,60.82 L 957.72,66.28 L 963.18,72.02 L 968.37,78.06 L 973.30,84.40 L 977.97,91.05 L 982.38,98.04 L 986.56,105.38 L 990.49,113.09 L 994.19,121.19 L 997.66,129.70 L 1000.90,138.67 L 1003.92,148.13 L 1006.72,158.12 L 1009.30,168.70 L 1011.67,179.94 L 1013.83,191.92 L 1015.77,204.74 L 1017.50,218.55 L 1019.03,233.54 L 1020.35,249.96 L 1021.47,268.22 L 1022.38,288.90 L 1023.09,313.06 L 1023.60,342.79 L 1023.90,383.74 L 1024.00,512.00 Z" fill="url(#bg)"/><path d="M 1024.00,512.00 L 1023.90,640.26 L 1023.60,681.21 L 1023.09,710.94 L 1022.38,735.10 L 1021.47,755.78 L 1020.35,774.04 L 1019.03,790.46 L 1017.50,805.45 L 1015.77,819.26 L 1013.83,832.08 L 1011.67,844.06 L 1009.30,855.30 L 1006.72,865.88 L 1003.92,875.87 L 1000.90,885.33 L 997.66,894.30 L 994.19,902.81 L 990.49,910.91 L 986.56,918.62 L 982.38,925.96 L 977.97,932.95 L 973.30,939.60 L 968.37,945.94 L 963.18,951.98 L 957.72,957.72 L 951.98,963.18 L 945.94,968.37 L 939.60,973.30 L 932.95,977.97 L 925.96,982.38 L 918.62,986.56 L 910.91,990.49 L 902.81,994.19 L 894.30,997.66 L 885.33,1000.90 L 875.87,1003.92 L 865.88,1006.72 L 855.30,1009.30 L 844.06,1011.67 L 832.08,1013.83 L 819.26,1015.77 L 805.45,1017.50 L 790.46,1019.03 L 774.04,1020.35 L 755.78,1021.47 L 735.10,1022.38 L 710.94,1023.09 L 681.21,1023.60 L 640.26,1023.90 L 512.00,1024.00 L 383.74,1023.90 L 342.79,1023.60 L 313.06,1023.09 L 288.90,1022.38 L 268.22,1021.47 L 249.96,1020.35 L 233.54,1019.03 L 218.55,1017.50 L 204.74,1015.77 L 191.92,1013.83 L 179.94,1011.67 L 168.70,1009.30 L 158.12,1006.72 L 148.13,1003.92 L 138.67,1000.90 L 129.70,997.66 L 121.19,994.19 L 113.09,990.49 L 105.38,986.56 L 98.04,982.38 L 91.05,977.97 L 84.40,973.30 L 78.06,968.37 L 72.02,963.18 L 66.28,957.72 L 60.82,951.98 L 55.63,945.94 L 50.70,939.60 L 46.03,932.95 L 41.62,925.96 L 37.44,918.62 L 33.51,910.91 L 29.81,902.81 L 26.34,894.30 L 23.10,885.33 L 20.08,875.87 L 17.28,865.88 L 14.70,855.30 L 12.33,844.06 L 10.17,832.08 L 8.23,819.26 L 6.50,805.45 L 4.97,790.46 L 3.65,774.04 L 2.53,755.78 L 1.62,735.10 L 0.91,710.94 L 0.40,681.21 L 0.10,640.26 L 0.00,512.00 L 0.10,383.74 L 0.40,342.79 L 0.91,313.06 L 1.62,288.90 L 2.53,268.22 L 3.65,249.96 L 4.97,233.54 L 6.50,218.55 L 8.23,204.74 L 10.17,191.92 L 12.33,179.94 L 14.70,168.70 L 17.28,158.12 L 20.08,148.13 L 23.10,138.67 L 26.34,129.70 L 29.81,121.19 L 33.51,113.09 L 37.44,105.38 L 41.62,98.04 L 46.03,91.05 L 50.70,84.40 L 55.63,78.06 L 60.82,72.02 L 66.28,66.28 L 72.02,60.82 L 78.06,55.63 L 84.40,50.70 L 91.05,46.03 L 98.04,41.62 L 105.38,37.44 L 113.09,33.51 L 121.19,29.81 L 129.70,26.34 L 138.67,23.10 L 148.13,20.08 L 158.12,17.28 L 168.70,14.70 L 179.94,12.33 L 191.92,10.17 L 204.74,8.23 L 218.55,6.50 L 233.54,4.97 L 249.96,3.65 L 268.22,2.53 L 288.90,1.62 L 313.06,0.91 L 342.79,0.40 L 383.74,0.10 L 512.00,0.00 L 640.26,0.10 L 681.21,0.40 L 710.94,0.91 L 735.10,1.62 L 755.78,2.53 L 774.04,3.65 L 790.46,4.97 L 805.45,6.50 L 819.26,8.23 L 832.08,10.17 L 844.06,12.33 L 855.30,14.70 L 865.88,17.28 L 875.87,20.08 L 885.33,23.10 L 894.30,26.34 L 902.81,29.81 L 910.91,33.51 L 918.62,37.44 L 925.96,41.62 L 932.95,46.03 L 939.60,50.70 L 945.94,55.63 L 951.98,60.82 L 957.72,66.28 L 963.18,72.02 L 968.37,78.06 L 973.30,84.40 L 977.97,91.05 L 982.38,98.04 L 986.56,105.38 L 990.49,113.09 L 994.19,121.19 L 997.66,129.70 L 1000.90,138.67 L 1003.92,148.13 L 1006.72,158.12 L 1009.30,168.70 L 1011.67,179.94 L 1013.83,191.92 L 1015.77,204.74 L 1017.50,218.55 L 1019.03,233.54 L 1020.35,249.96 L 1021.47,268.22 L 1022.38,288.90 L 1023.09,313.06 L 1023.60,342.79 L 1023.90,383.74 L 1024.00,512.00 Z" fill="url(#glow)"/><g transform="translate(512.000,524.288) scale(0.33858,-0.33858) translate(-1233.000,-227.500)" fill="#F6F4E9"><path d="M224 378Q224 334 224.5 279.0Q225 224 226.5 171.0Q228 118 229.5 79.0Q231 40 234 28L124 -4L112 3Q113 32 114.0 70.5Q115 109 116.0 148.0Q117 187 117.5 220.5Q118 254 118.5 275.0Q119 296 119 296Q119 328 118.0 357.0Q117 386 109.0 404.5Q101 423 81 423Q71 423 57.0 416.5Q43 410 30.5 402.0Q18 394 11 390L-7 414Q16 433 43.0 452.0Q70 471 98.5 484.0Q127 497 155 497Q194 497 206.5 475.5Q219 454 221 428L233 424Q277 451 329.5 472.5Q382 494 432 494Q474 494 495.0 478.0Q516 462 524.0 432.5Q532 403 532.5 362.5Q533 322 533 273Q533 250 531.5 222.0Q530 194 530 170Q530 127 534.5 115.5Q539 104 546 98Q556 88 574 88Q593 88 609.5 96.0Q626 104 641 114H653L664 97Q642 75 615.5 50.0Q589 25 561.0 7.5Q533 -10 505 -10Q473 -10 451 10Q436 24 431.5 50.0Q427 76 427.5 121.5Q428 167 428 240Q428 269 427.0 303.5Q426 338 420.5 367.0Q415 396 401 408Q390 419 375.0 421.5Q360 424 345 424Q323 424 287.5 408.5Q252 393 224 378Z" transform="translate(0,0)"/><path d="M100 621Q100 648 119.5 667.5Q139 687 166 687Q193 687 212.5 667.5Q232 648 232 621Q232 594 212.5 574.5Q193 555 166 555Q139 555 119.5 574.5Q100 594 100 621ZM331 119 348 103V92Q329 69 304.0 44.5Q279 20 250.5 3.5Q222 -13 192 -13Q174 -13 158.0 -5.5Q142 2 132 15Q119 33 115.0 59.0Q111 85 112.0 131.5Q113 178 113 254V371Q112 387 105.5 403.5Q99 420 78 420Q62 420 44.5 410.5Q27 401 9 388L-7 410Q16 429 43.5 448.0Q71 467 100.0 480.0Q129 493 158 493Q173 493 187.0 487.5Q201 482 208 470Q214 460 217.0 445.0Q220 430 220 386Q220 356 218.5 325.5Q217 295 217 265Q217 204 216.5 161.0Q216 118 225.0 95.0Q234 72 260 72Q278 72 297.0 88.0Q316 104 331 119Z" transform="translate(658,0)"/><path d="M534 487Q533 465 532.0 447.5Q531 430 530.5 408.0Q530 386 530.0 352.5Q530 319 530.0 267.0Q530 215 530 137Q530 80 527.0 41.5Q524 3 515 -35Q501 -95 456.0 -139.0Q411 -183 350.5 -207.5Q290 -232 228 -232Q185 -232 140.0 -212.0Q95 -192 68 -161L128 -82H149Q172 -122 203.5 -152.0Q235 -182 273 -182Q330 -182 360.5 -150.0Q391 -118 403.5 -64.5Q416 -11 417 54L407 58Q367 32 314.5 10.5Q262 -11 218 -11Q176 -11 153.0 5.0Q130 21 120.5 47.5Q111 74 109.0 107.5Q107 141 107 176Q107 214 110.0 253.0Q113 292 113 330Q113 346 111.5 366.5Q110 387 101.0 402.0Q92 417 69 417Q56 417 39.5 407.0Q23 397 11 386L-7 411Q25 439 69.0 464.0Q113 489 157 489Q182 489 202 471Q210 464 215.0 447.5Q220 431 220 384Q220 340 217.5 297.5Q215 255 215 208Q215 128 233.0 94.5Q251 61 306 61Q327 61 349.5 69.0Q372 77 391.0 87.5Q410 98 418 103Q422 147 423.5 193.5Q425 240 425 287Q425 331 423.0 373.5Q421 416 416 456L516 491Z" transform="translate(1002,0)"/><path d="M464 101 475 82Q442 58 404.5 35.5Q367 13 327.0 -1.5Q287 -16 246 -16Q203 -16 161.5 -4.5Q120 7 90 35Q54 68 41.5 113.0Q29 158 29 204Q29 259 46.0 311.0Q63 363 98.0 404.5Q133 446 185.5 470.5Q238 495 309 495Q356 495 400.0 481.5Q444 468 472.0 436.0Q500 404 500 349Q500 333 492.5 325.0Q485 317 471 312Q471 312 448.0 305.0Q425 298 388.0 286.5Q351 275 308.0 262.0Q265 249 223.0 236.0Q181 223 149 213Q149 173 166.0 136.0Q183 99 216.0 75.5Q249 52 297 52Q338 52 376.5 68.0Q415 84 449 105ZM162 258Q231 280 274.0 292.5Q317 305 339.0 312.5Q361 320 369.0 326.5Q377 333 377 344Q377 370 368.0 395.5Q359 421 339.0 438.0Q319 455 286 455Q246 455 219.0 435.5Q192 416 177.0 386.0Q162 356 155.5 322.5Q149 289 149 262Q149 257 156 257Q158 257 159.5 257.5Q161 258 162 258Z" transform="translate(1595,0)"/><path d="M101 588 208 624 223 617Q223 617 221.5 600.0Q220 583 218.5 557.5Q217 532 215.0 504.0Q213 476 211 453L218 445H343L350 435L340 409L328 400H218L210 392V233Q210 191 212.5 154.5Q215 118 226.5 95.5Q238 73 265 73Q285 73 307.5 85.5Q330 98 346 113H356L368 98Q349 73 323.5 48.0Q298 23 267.5 6.0Q237 -11 203 -11Q167 -11 147.0 4.0Q127 19 118.0 44.5Q109 70 107.0 101.0Q105 132 105 163V391L96 400H-14L-20 408L-10 437L1 444H97L104 453Q104 479 103.0 510.5Q102 542 101.5 565.0Q101 588 101 588Z" transform="translate(2105,0)"/></g></svg>